<svg id="Layer_1" data-name="Layer 1" xmlns="http://www.w3.org/2000/svg" viewBox="0 0 24 24"><defs><style>.cls-1{fill:#828282;}.cls-2{fill:none;}</style></defs><title>feedback</title><path class="cls-1" d="M18.6,21.5a0.5,0.5,0,0,1-.36-0.15L15.49,18.5H2A0.5,0.5,0,0,1,1.5,18V3A0.5,0.5,0,0,1,2,2.5H22a0.5,0.5,0,0,1,.5.5V18a0.5,0.5,0,0,1-.5.5H19.1V21A0.5,0.5,0,0,1,18.6,21.5Zm-16.1-4H15.7a0.5,0.5,0,0,1,.36.15l2,2.11V18a0.5,0.5,0,0,1,.5-0.5h2.9V3.5H2.5v14Z"/><circle class="cls-1" cx="6.5" cy="10.5" r="1.5"/><circle class="cls-1" cx="12" cy="10.5" r="1.5"/><circle class="cls-1" cx="17.5" cy="10.5" r="1.5"/><rect class="cls-2" width="1.75" height="1.56"/><rect class="cls-2" x="22.25" y="22.44" width="1.75" height="1.56"/></svg>