<?xml version="1.0" encoding="utf-8"?>
<!-- Generator: Adobe Illustrator 19.2.1, SVG Export Plug-In . SVG Version: 6.00 Build 0)  -->
<svg version="1.1" id="Layer_1" xmlns="http://www.w3.org/2000/svg" xmlns:xlink="http://www.w3.org/1999/xlink" x="0px" y="0px"
	 viewBox="0 0 50 50" style="enable-background:new 0 0 50 50;" xml:space="preserve">
<style type="text/css">
	.st0{fill:#00AAAA;}
	.st1{fill:url(#SVGID_1_);}
	.st2{fill:url(#SVGID_2_);}
	.st3{fill:url(#SVGID_3_);}
	.st4{fill:url(#SVGID_4_);}
	.st5{fill:url(#SVGID_5_);}
	.st6{fill:url(#SVGID_6_);}
	.st7{fill:url(#SVGID_7_);}
	.st8{fill:#7AC6CE;}
</style>
<g>
	<path class="st0" d="M25.08541,36.61279c-0.5816,0-1.16773-0.06763-1.74208-0.201c-1.53655-0.35683-2.88676-1.14945-3.9047-2.29206
		c-0.98323-1.10368-1.58303-2.48336-1.68917-3.88546c-0.00164-0.24592,0.03507-0.43534,0.10916-0.56306
		c0.21772-0.37531,0.35439-0.55937,0.40561-0.62402l3.77833-0.5106c0.01267,0.14934,0.04335,0.29761,0.09144,0.4417
		c0.32312,0.96683,1.39594,1.64204,2.60889,1.64204c1.12181,0,2.14053-0.58362,2.53499-1.45225
		c0.0225-0.04958,0.04352-0.10231,0.06438-0.16123c0.07191-0.20482,0.10833-0.41606,0.10833-0.62814
		c0-0.64327-0.3343-1.25627-0.91715-1.68185l-0.03495-0.0255l-0.04265,0.00711c-0.42074,0.07022-0.85183,0.10583-1.28121,0.10583
		c-0.00007,0-0.00007,0-0.0001,0c-0.41256-0.00002-0.83032-0.03289-1.24168-0.09776
		c-0.00404-0.00062-0.02057-0.00378-0.02543-0.00457c-0.22161-0.03564-0.44538-0.08148-0.66526-0.13629
		c-0.54876-0.13659-1.08202-0.33246-1.58609-0.58256v-2.23929c0.15674-0.04622,0.54655-0.16454,1.04906-0.34129
		c0.74524-0.2623,1.43022-0.5429,2.03591-0.83406c0.91559-0.4401,1.61908-0.89118,2.09105-1.34072
		c0.16699-0.13635,0.30927-0.2898,0.42295-0.45613l0.01908-0.02792l-0.00231-0.0647
		c-0.03036-0.95034-1.05698-1.72693-2.38801-1.80604c-0.08045-0.00471-0.15264-0.00698-0.22082-0.00698
		c-0.53907,0-1.05675,0.1158-1.49709,0.33489c-0.03493,0.01737-0.06973,0.03555-0.10336,0.05403
		c-0.25034,0.13818-0.46045,0.30457-0.62464,0.49468c-0.15614,0.18075-0.2666,0.37771-0.32833,0.58544
		c-0.02708,0.09121-0.04451,0.18583-0.05196,0.28193l-0.04705,0.04067c-0.95024-0.08677-3.31381-0.31007-3.53197-0.3647
		c-0.7367-0.18451-0.6692-0.88498-0.60598-1.17757c0.00282-0.01242,0.00616-0.02544,0.00949-0.03847
		c0.00335-0.01307,0.00668-0.02613,0.00978-0.03949c0.19002-0.81452,0.47067-1.55774,0.83414-2.20892
		c0.70985-1.11922,1.68311-2.02461,2.81464-2.61832c1.01551-0.53283,2.11937-0.80299,3.28092-0.80299
		c0.39254,0,0.79366,0.03185,1.19221,0.09466c1.92519,0.30337,3.62637,1.27638,4.79018,2.73981
		c1.16173,1.46084,1.64856,3.23565,1.37083,4.99747c-0.08142,0.51671-0.23042,1.02525-0.44287,1.51147
		c-0.31917,0.73028-0.77303,1.39157-1.34894,1.96553c-0.10666,0.10636-0.22085,0.21173-0.3491,0.32215l-0.07793,0.06707
		l0.06706,0.07793c2.24988,2.61492,2.6646,5.45237,1.16776,7.98959l-0.00174,0.00305
		c-0.55743,1.02327-1.40819,1.88568-2.46025,2.49403c-0.67983,0.41522-1.39544,0.69007-2.07162,0.79616l-0.00566,0.00107
		C26.14015,36.55709,25.61325,36.61279,25.08541,36.61279z"/>
	
		<radialGradient id="SVGID_1_" cx="-2.88965" cy="-105.11171" r="4.91177" fx="-3.45719" fy="-105.28135" gradientTransform="matrix(0.96136 -0.2753 -0.17738 -0.61942 10.27178 -40.91369)" gradientUnits="userSpaceOnUse">
		<stop  offset="0.07572" style="stop-color:#1C5B66"/>
		<stop  offset="0.4886" style="stop-color:#0F6D76"/>
		<stop  offset="0.8652" style="stop-color:#008287"/>
	</radialGradient>
	<path class="st1" d="M29.75113,25.24528c-0.25975,0.14447-0.53624,0.26789-0.82679,0.36753
		c-0.54953,0.18866-1.14781,0.29341-1.77437,0.29341c-0.4888,0-0.96043-0.06369-1.40515-0.18088
		c-0.62154-0.16382-1.1902-0.43318-1.67804-0.78459c-1.14546,0.55805-2.11927,0.92284-2.51355,1.06343v0.02245
		c0.51848,0.26255,1.07529,0.47231,1.66406,0.61886c0.2203,0.0549,0.44492,0.10122,0.67367,0.13801
		c0.00857,0.00139,0.01724,0.00333,0.02588,0.00464c0.87545,0.13803,1.73709,0.12844,2.55595-0.00822
		c0.98129-0.16387,1.90005-0.51189,2.70715-1.00869c0.22607-0.13935,0.44314-0.29048,0.6506-0.45245
		c0.21964-0.17155,0.42912-0.35437,0.62509-0.54978C30.23869,24.94586,30.00288,25.10531,29.75113,25.24528z"/>
	
		<linearGradient id="SVGID_2_" gradientUnits="userSpaceOnUse" x1="23.95199" y1="25.07538" x2="27.91287" y2="18.45173" gradientTransform="matrix(1 0 0 -1 0 52)">
		<stop  offset="0.36516" style="stop-color:#1F6470"/>
		<stop  offset="1" style="stop-color:#00AAAA"/>
	</linearGradient>
	<path class="st2" d="M29.17993,25.77123c-0.8071,0.49681-1.72586,0.84482-2.70715,1.00869
		c0.53654,0.39175,0.87497,0.96276,0.87497,1.5988c0,0.20609-0.03622,0.40521-0.10247,0.59386
		c-0.01831,0.05182-0.03833,0.10294-0.06103,0.15299c-0.0543,0.34167-0.20147,0.69687-0.4812,1.00057
		c-0.48833,0.47793-1.26059,0.78675-2.13023,0.78675c-0.76101,0-1.44737-0.23675-1.93423-0.61632
		c-0.49727-0.44736-0.67959-0.9918-0.71888-1.12799c-0.00601-0.02069-0.00908-0.03301-0.00908-0.03301l0.00022-0.00077
		c-1.07295,0.72589-1.02324,1.7276-0.9858,1.97189C21.94165,37.73275,34.09797,33.62393,29.17993,25.77123z"/>
	
		<linearGradient id="SVGID_3_" gradientUnits="userSpaceOnUse" x1="21.89897" y1="22.32281" x2="27.18425" y2="22.32281" gradientTransform="matrix(1 0 0 -1 0 52)">
		<stop  offset="0" style="stop-color:#1F9AAA"/>
		<stop  offset="0.86722" style="stop-color:#146D76"/>
	</linearGradient>
	<path class="st3" d="M24.74289,30.51749c-1.19921,0-2.20861-0.66593-2.51134-1.57176
		c-0.05085-0.15236-0.06753-0.24938-0.0817-0.34003c-0.02297-0.1469-0.17094-0.16421-0.17094-0.16421
		c-0.05196,0.15473-0.07994,0.31659-0.07994,0.48331c0,0.06876,0.00467,0.13682,0.01391,0.20391
		c0.00018,0.00141,0.00057,0.00295,0.00074,0.00435c0.00172,0.01202,0.00414,0.02374,0.00609,0.03552
		c0.03929,0.13619,0.2216,0.68063,0.71888,1.12799c0.48686,0.37957,1.17322,0.61632,1.93423,0.61632
		c0.86964,0,1.6419-0.30882,2.13023-0.78675c0.27974-0.3037,0.4269-0.6589,0.4812-1.00057
		C26.81512,29.9384,25.86162,30.51749,24.74289,30.51749z"/>
	
		<linearGradient id="SVGID_4_" gradientUnits="userSpaceOnUse" x1="27.86378" y1="38.15414" x2="25.55119" y2="29.00423" gradientTransform="matrix(1 0 0 -1 0 52)">
		<stop  offset="0.1408" style="stop-color:#83D6D6"/>
		<stop  offset="0.23918" style="stop-color:#6FCFCF"/>
		<stop  offset="0.5611" style="stop-color:#33BBBB"/>
		<stop  offset="0.79828" style="stop-color:#0EAFAF"/>
		<stop  offset="0.92329" style="stop-color:#00AAAA"/>
	</linearGradient>
	<path class="st4" d="M26.02981,13.38029c-1.6738-0.26378-3.22346,0.02969-4.53692,0.71884
		c3.49554-1.54093,8.04857,0.52888,8.32921,4.10791c0.04151,0.53003-0.00944,1.0928-0.17281,1.68212
		c-0.39567,1.4286-1.67464,2.65968-3.11293,3.63866c-0.81591,0.55546-1.68296,1.02981-2.46958,1.41293
		c0.48783,0.35141,1.0565,0.62077,1.67804,0.78459c0.44472,0.11719,0.91635,0.18088,1.40515,0.18088
		c0.62656,0,1.22484-0.10475,1.77437-0.29341c0.29055-0.09964,0.56704-0.22306,0.82679-0.36753
		c0.25175-0.13997,0.48757-0.29942,0.7045-0.47628c0.57591-0.57395,1.04289-1.24745,1.37057-1.9972
		c0.21087-0.48261,0.36507-0.99617,0.45024-1.53663C32.86004,17.53279,30.06314,14.01584,26.02981,13.38029z"/>
	
		<radialGradient id="SVGID_5_" cx="-87.77807" cy="-54.17041" r="8.54703" gradientTransform="matrix(0.73896 -0.67375 -0.87898 -0.96404 37.80383 -88.79105)" gradientUnits="userSpaceOnUse">
		<stop  offset="0.24645" style="stop-color:#1E606C"/>
		<stop  offset="0.54055" style="stop-color:#108389"/>
		<stop  offset="0.83213" style="stop-color:#049FA1"/>
		<stop  offset="1" style="stop-color:#00AAAA"/>
	</radialGradient>
	<path class="st5" d="M29.8221,18.20704c-0.28064-3.57904-4.83367-5.64885-8.32921-4.10791
		c-1.16431,0.61091-2.14289,1.53266-2.85525,2.65675c-0.35659,0.63826-0.64588,1.38084-0.84591,2.23828
		c-0.00624,0.02685-0.01351,0.05249-0.01962,0.07951c-0.05848,0.27065-0.16037,1.0882,0.68152,1.29906
		c0.27781,0.06956,3.59107,0.37133,3.59107,0.37133l0.00671-0.00574c-0.02069-0.19242-0.0437-0.58664,0.04206-1.01411
		c0.00917-0.04545,0.01935-0.09128,0.03119-0.13739c0.14949-0.98412,1.28153-1.74926,2.65656-1.74926
		c0.1438,0,0.28471,0.00857,0.4223,0.02469c1.21014,0.14161,2.14922,0.88148,2.24312,1.79558
		c0.0004,0.00392,0.0008,0.00788,0.0012,0.01188c0.00174,0.01816,0.00345,0.03644,0.00449,0.0549
		c0.00093,0.01266,0.00231,0.02469,0.00308,0.0376c0.00603,0.11038-0.00412,0.21945-0.02769,0.32713
		c-0.04148,0.21457-0.13006,0.41778-0.25757,0.6043c-0.10874,0.15909-0.24539,0.30617-0.40615,0.43698
		c-0.52516,0.50124-1.2872,0.95014-2.06751,1.32522c-0.71688,0.3446-1.44854,0.62666-2.02549,0.82972
		c-0.66009,0.23217-1.11777,0.36109-1.11777,0.36109v0.26611v2.09143c0.39428-0.14058,1.36809-0.50537,2.51355-1.06343
		c0.78662-0.38312,1.65367-0.85747,2.46958-1.41293c1.43829-0.97898,2.71726-2.21006,3.11293-3.63866
		C29.81266,19.29985,29.86361,18.73707,29.8221,18.20704z"/>
	
		<linearGradient id="SVGID_6_" gradientUnits="userSpaceOnUse" x1="22.03218" y1="32.71206" x2="27.45527" y2="32.71206" gradientTransform="matrix(1 0 0 -1 0 52)">
		<stop  offset="0" style="stop-color:#0B454E"/>
		<stop  offset="0.20401" style="stop-color:#09545C"/>
		<stop  offset="0.59669" style="stop-color:#057B80"/>
		<stop  offset="0.9995" style="stop-color:#00AAAA"/>
	</linearGradient>
	<path class="st6" d="M27.45233,19.72461c-0.00137-0.01846-0.00258-0.03708-0.00449-0.0549
		c-0.00037-0.004-0.0008-0.00797-0.0012-0.01188c-0.00572-0.0507-0.01389-0.09816-0.02324-0.14416
		c-0.00375-0.01793-0.0078-0.03548-0.01201-0.05319c-0.00656-0.02683-0.01399-0.05266-0.02197-0.07779
		c-0.23461-0.78409-1.10007-1.39335-2.18591-1.52044c-0.13759-0.01612-0.2785-0.02469-0.4223-0.02469
		c-1.37503,0-2.50707,0.76514-2.65656,1.74926c-0.01184,0.04612-0.02201,0.09195-0.03119,0.13739
		c-0.08577,0.42747-0.06275,0.82169-0.04206,1.01411l0.1062-0.09183c0.00464-0.10319,0.02146-0.2042,0.05053-0.30213
		c0.05844-0.19661,0.16382-0.38107,0.30759-0.54751c0.15669-0.18141,0.35948-0.34104,0.59633-0.47176
		c0.03263-0.01793,0.0658-0.03527,0.09965-0.05209c0.40976-0.20388,0.91025-0.32413,1.45128-0.32413
		c0.0725,0,0.14391,0.00266,0.21473,0.0068c1.26548,0.07522,2.29718,0.82871,2.29146,1.73813
		c0.13304-0.18004,0.21563-0.40836,0.25855-0.60447c0.01771-0.09176,0.02755-0.18548,0.02755-0.28084
		C27.45528,19.7803,27.45387,19.75245,27.45233,19.72461z"/>
	
		<linearGradient id="SVGID_7_" gradientUnits="userSpaceOnUse" x1="24.00728" y1="24.7275" x2="29.50116" y2="8.50742" gradientTransform="matrix(1 0 0 -1 0 52)">
		<stop  offset="0.03226" style="stop-color:#62B3BE"/>
		<stop  offset="0.32697" style="stop-color:#408E94"/>
		<stop  offset="0.53096" style="stop-color:#2C797B"/>
		<stop  offset="0.60181" style="stop-color:#368183"/>
		<stop  offset="0.72292" style="stop-color:#519599"/>
		<stop  offset="0.87858" style="stop-color:#7DB7BC"/>
		<stop  offset="0.99552" style="stop-color:#A3D3DA"/>
	</linearGradient>
	<path class="st7" d="M30.09903,25.09392c0,0-0.57876,0.48067-0.91909,0.67731c0.39299,0.55283,0.63979,1.1708,0.85609,1.6846
		c0.26882,0.67686,0.41341,1.6603,0.30089,2.53603c-0.6275,4.88472-8.71911,6.41306-9.41186,1.11483
		c-0.032-0.24509-0.08715-1.246,0.9858-1.97189l0.00203-0.00609c-0.00924-0.06709-0.01391-0.13515-0.01391-0.20391
		c0-0.16672,0.02799-0.32858,0.07994-0.48331l-3.76836,0.50919c0,0-0.14824,0.16444-0.4409,0.66895
		c-0.09184,0.15835-0.12495,0.37789-0.123,0.6189c0.21886,2.91307,2.46384,5.52806,5.67342,6.27343
		c1.14799,0.26658,2.29077,0.26404,3.35304,0.03579c0.69673-0.10931,1.42132-0.38981,2.10717-0.80875
		c1.04958-0.60691,1.9213-1.47328,2.49909-2.53384C32.56397,31.02769,32.70839,28.1251,30.09903,25.09392z"/>
	<path class="st8" d="M21.91971,29.16858c0.01785,0.05356,0.03803,0.10616,0.06031,0.15788
		c0.02248,0.05161,0.04561,0.10286,0.07091,0.15303c0.013,0.02492,0.02502,0.05029,0.03896,0.07468
		c0.01382,0.02444,0.02649,0.04948,0.04127,0.07336c0.01456,0.02398,0.02827,0.04844,0.04349,0.07198l0.04563,0.07056
		l0.04819,0.06876c0.01594,0.02298,0.03366,0.04469,0.05037,0.06706c0.01665,0.02244,0.03423,0.04414,0.05211,0.0656
		c0.01803,0.02132,0.03473,0.04372,0.0538,0.06413l0.05596,0.06218c0.01886,0.02051,0.03903,0.03979,0.05846,0.05974
		c0.01937,0.02001,0.03919,0.03955,0.06012,0.05794l0.06163,0.05625l-0.0018-0.00151
		c0.09121,0.06748,0.18588,0.13012,0.28447,0.18621c0.09932,0.0547,0.20065,0.10583,0.3055,0.14911
		c0.05187,0.02281,0.10536,0.04191,0.15831,0.06203c0.05382,0.01788,0.10703,0.03747,0.16175,0.05248
		c0.1083,0.03374,0.21937,0.0575,0.33028,0.08071c0.11159,0.01996,0.22367,0.03818,0.33678,0.04725
		c0.11241,0.01138,0.22745,0.01454,0.33876,0.01552c0.05734-0.00165,0.11528-0.0017,0.17214-0.00409
		c0.05623-0.00417,0.11234-0.00603,0.1687-0.01198c0.11282-0.01133,0.2254-0.02622,0.33654-0.04869l0.08339-0.0167l0.08266-0.01985
		c0.02747-0.00694,0.05527-0.01273,0.0825-0.02059l0.08164-0.02376c0.05484-0.01463,0.10773-0.03517,0.1616-0.05287
		c0.05341-0.01895,0.10572-0.04088,0.15843-0.06171c0.10341-0.04619,0.20672-0.09347,0.30457-0.15079
		c0.09939-0.05475,0.19288-0.11922,0.28418-0.18643c0.04372-0.03597,0.0902-0.06894,0.13151-0.10781l0.0318-0.02827l0.01591-0.01414
		l0.00796-0.00707l0.00398-0.00354c-0.00259,0.00273-0.00019,0.00019-0.00053,0.00054l0.00091-0.00099l0.00182-0.00199
		c0.01916-0.02123,0.03956-0.04221,0.0577-0.06366c0.07342-0.08514,0.14096-0.17764,0.19973-0.2749
		c0.11738-0.19531,0.19697-0.41315,0.24215-0.63867c-0.01479,0.11402-0.03765,0.22771-0.0733,0.33779
		c-0.03532,0.1101-0.0796,0.21779-0.13432,0.32036c-0.05471,0.10277-0.11856,0.20009-0.19246,0.29153
		c-0.01818,0.02313-0.03717,0.04412-0.05571,0.06628l-0.00496,0.00562l-0.00394,0.00378l-0.00788,0.00756l-0.01577,0.01512
		l-0.03156,0.03024c-0.04111,0.04149-0.0872,0.07727-0.13113,0.11568c-0.09188,0.07161-0.18639,0.14051-0.28699,0.19955
		c-0.09915,0.06156-0.20374,0.11363-0.30968,0.16237c-0.05381,0.02233-0.10731,0.04575-0.16191,0.06613
		c-0.05504,0.01913-0.10921,0.0411-0.1653,0.05709l-0.08358,0.02579c-0.02789,0.00853-0.05633,0.01498-0.08448,0.02257
		c-0.02825,0.00717-0.05636,0.01501-0.0848,0.02141l-0.08564,0.01765c-0.11418,0.0237-0.22979,0.03966-0.34568,0.05191
		c-0.05795,0.00642-0.11688,0.00879-0.17529,0.01332c-0.05799,0.00261-0.11509,0.00333-0.17269,0.00478
		c-0.1186-0.00155-0.23367-0.0055-0.35009-0.01778c-0.11616-0.00998-0.2313-0.02926-0.3459-0.05043
		c-0.11407-0.02402-0.22754-0.05153-0.33846-0.08763c-0.05597-0.01637-0.11045-0.03736-0.16543-0.05666
		c-0.05416-0.02155-0.10877-0.0421-0.16178-0.06641c-0.10728-0.04584-0.20968-0.10232-0.31035-0.16093
		c-0.09976-0.06043-0.19555-0.12721-0.28712-0.19934l-0.00134-0.00106l-0.00046-0.00046l-0.06118-0.06012
		c-0.02074-0.01967-0.04033-0.04046-0.05944-0.0617c-0.01916-0.02118-0.03904-0.04168-0.05756-0.06338l-0.05484-0.06568
		c-0.01867-0.02155-0.03492-0.04506-0.05248-0.06748c-0.01747-0.0225-0.0345-0.04532-0.05017-0.06912
		c-0.01585-0.02365-0.03268-0.04661-0.04768-0.07079l-0.04529-0.07226l-0.04254-0.07384
		c-0.01416-0.0246-0.02678-0.05007-0.04023-0.07503c-0.01366-0.02485-0.02518-0.05083-0.03784-0.07618
		c-0.01277-0.0253-0.02361-0.05154-0.03539-0.07728c-0.0118-0.02574-0.02187-0.05225-0.03288-0.07831
		c-0.01039-0.02633-0.02027-0.05286-0.0296-0.07955C21.95039,29.27734,21.93381,29.22319,21.91971,29.16858z"/>
	<path class="st8" d="M24.06678,24.94076c0,0,0.07011-0.03589,0.20156-0.10319c0.13131-0.0675,0.32275-0.16879,0.56454-0.30086
		c0.48263-0.26534,1.16534-0.65962,1.93196-1.21025c0.38194-0.27495,0.78224-0.59412,1.17463-0.96338
		c0.02461-0.02299,0.0493-0.04606,0.07408-0.06921c0.02399-0.02394,0.04807-0.04795,0.07222-0.07205
		c0.0482-0.04826,0.09672-0.09684,0.14553-0.14571c0.04699-0.05057,0.09426-0.10144,0.14181-0.15261
		c0.02373-0.02562,0.04752-0.0513,0.07138-0.07706c0.0228-0.02667,0.04567-0.05342,0.0686-0.08024
		c0.18687-0.2117,0.35978-0.44285,0.52112-0.6865c0.03898-0.0618,0.07812-0.12386,0.11741-0.18616
		c0.03561-0.06438,0.07136-0.12901,0.10724-0.19387l0.02695-0.04867c0.00861-0.01643,0.01608-0.03344,0.02419-0.05014
		c0.01592-0.03356,0.03187-0.06717,0.04784-0.10085c0.01598-0.03366,0.03199-0.06738,0.04803-0.10115
		c0.01455-0.03439,0.02765-0.06944,0.04159-0.1042c0.01375-0.03484,0.02753-0.06972,0.04132-0.10466l0.02072-0.05243
		l0.01704-0.05377c0.02241-0.07165,0.04487-0.14349,0.0674-0.21552l0.02925-0.1115l0.02662-0.11066
		c0.01684-0.07446,0.03249-0.14934,0.04627-0.22471c0.05504-0.30146,0.083-0.61025,0.07873-0.91989
		c-0.00154-0.07738-0.00404-0.15484-0.00952-0.23217l-0.00387-0.05686l-0.00579-0.05868
		c-0.00402-0.03901-0.00737-0.07852-0.01195-0.11716c-0.0192-0.15236-0.04593-0.30609-0.08062-0.45731
		c-0.13899-0.60583-0.41652-1.17676-0.78661-1.66451c-0.37006-0.48869-0.82464-0.89887-1.31178-1.22265
		c-0.48827-0.32313-1.00541-0.56593-1.51538-0.73609c-0.51058-0.16937-1.01308-0.26856-1.48096-0.31267
		c-0.46818-0.04384-0.90134-0.03568-1.28188,0.00204c-0.19038,0.01851-0.3678,0.04449-0.53053,0.07549
		c-0.16306,0.02954-0.31118,0.06517-0.44432,0.09965c-0.26558,0.07173-0.47079,0.14147-0.60838,0.19481
		c-0.06945,0.02505-0.12112,0.04825-0.15672,0.06198c-0.03536,0.01434-0.05361,0.02174-0.05361,0.02174
		s0.01802-0.00793,0.05293-0.02331c0.03516-0.01478,0.0862-0.03953,0.15492-0.06664
		c0.13628-0.05695,0.33915-0.13463,0.60444-0.21173c0.13286-0.03756,0.28087-0.07663,0.44411-0.10994
		c0.16292-0.03477,0.34082-0.06485,0.53211-0.08773c0.19124-0.02317,0.39592-0.03951,0.6122-0.0453
		c0.21628-0.00586,0.44404,0.0009,0.68078,0.01974c0.47333,0.03821,0.98297,0.13158,1.50278,0.29627
		c0.2598,0.08244,0.52131,0.18437,0.78132,0.30469c0.26008,0.12028,0.51615,0.26403,0.76604,0.4263
		c0.4976,0.32689,0.96737,0.74035,1.3469,1.2414c0.38038,0.49896,0.6676,1.08527,0.81176,1.70858
		c0.03536,0.15596,0.06243,0.31291,0.08211,0.47288c0.00457,0.03949,0.00777,0.0784,0.01172,0.11761l0.00566,0.05869
		l0.00405,0.06077c0.00544,0.07947,0.00784,0.15903,0.00923,0.23851c0.00366,0.31799-0.02578,0.6346-0.08283,0.94303
		c-0.01429,0.07712-0.03047,0.15369-0.04787,0.22979l-0.02776,0.11419l-0.0298,0.1116
		c-0.02382,0.07448-0.04758,0.14877-0.07128,0.22286l-0.018,0.05529l-0.02165,0.05383
		c-0.01443,0.03585-0.02885,0.07165-0.04324,0.1074c-0.01459,0.03565-0.02835,0.07161-0.04357,0.10684
		c-0.01668,0.03455-0.03333,0.06905-0.04995,0.10349c-0.01663,0.03443-0.03324,0.0688-0.04981,0.10312
		c-0.00844,0.01707-0.01625,0.03447-0.02518,0.05124l-0.0279,0.04965c-0.03718,0.06611-0.07423,0.13199-0.11113,0.19761
		c-0.04054,0.06334-0.08093,0.12642-0.12115,0.18925c-0.0388,0.06381-0.08414,0.12264-0.12675,0.18298
		c-0.04341,0.05975-0.08474,0.12069-0.13148,0.17697c-0.04552,0.05721-0.09082,0.11415-0.1359,0.1708
		c-0.04686,0.05511-0.09486,0.10875-0.14185,0.16273c-0.02362,0.02688-0.04717,0.05368-0.07066,0.08041
		c-0.02451,0.02577-0.04895,0.05146-0.07332,0.07709c-0.04882,0.05114-0.09736,0.10199-0.14561,0.15252
		c-0.05,0.04874-0.09969,0.09719-0.14907,0.14533c-0.02473,0.02401-0.04938,0.04795-0.07394,0.07181
		c-0.02532,0.02304-0.05056,0.04599-0.07571,0.06888c-0.40133,0.3676-0.80762,0.68269-1.19618,0.95459
		c-0.09773,0.06673-0.19193,0.13275-0.2867,0.19604c-0.0942,0.06296-0.18704,0.12317-0.27817,0.18091
		c-0.18247,0.11512-0.35779,0.2206-0.52373,0.3176c-0.3319,0.19401-0.62716,0.35245-0.87167,0.48003
		c-0.24452,0.12763-0.43979,0.2216-0.57283,0.28574C24.13791,24.90694,24.06678,24.94076,24.06678,24.94076z"/>
	<path class="st8" d="M29.17993,25.77123c0,0,0.03715,0.05869,0.10682,0.16874c0.03455,0.05519,0.07841,0.1225,0.12767,0.20305
		c0.0468,0.08216,0.10059,0.17659,0.16084,0.28236c0.03117,0.05241,0.05911,0.11013,0.08971,0.17003
		c0.03046,0.06,0.06233,0.12278,0.09555,0.18822c0.00828,0.01639,0.01663,0.03294,0.02508,0.04965
		c0.00766,0.01708,0.0154,0.03434,0.02321,0.05176c0.01563,0.03485,0.03156,0.07037,0.04778,0.10654
		c0.01623,0.03618,0.03274,0.07302,0.04955,0.11049c0.01672,0.03751,0.03459,0.07532,0.04916,0.11522
		c0.12925,0.31398,0.25231,0.67896,0.34009,1.08894c0.0877,0.40951,0.1376,0.86518,0.11615,1.34692
		c-0.00034,0.06031-0.0069,0.12066-0.01249,0.18147c-0.00578,0.06079-0.01073,0.1221-0.01733,0.18361
		c-0.0094,0.06116-0.01884,0.1227-0.02835,0.18459c-0.00482,0.03095-0.00966,0.06198-0.01451,0.09311
		c-0.00666,0.03079-0.01335,0.06166-0.02005,0.09262c-0.01361,0.06187-0.02648,0.12431-0.04095,0.18669
		c-0.01751,0.06162-0.03512,0.12354-0.05281,0.18577c-0.00938,0.03095-0.01664,0.06266-0.02783,0.09319
		c-0.01076,0.03067-0.02155,0.06141-0.03236,0.09222c-0.01082,0.03081-0.02166,0.0617-0.03253,0.09264
		c-0.01074,0.031-0.02143,0.0621-0.03486,0.0922c-0.02546,0.06077-0.05103,0.12179-0.0767,0.18305
		c-0.01208,0.03098-0.02753,0.06048-0.04204,0.09049c-0.01465,0.02995-0.02932,0.05995-0.04402,0.09001
		c-0.01471,0.03006-0.02945,0.06017-0.04421,0.09033l-0.04919,0.08809c-0.03363,0.05836-0.06473,0.11855-0.10081,0.17595
		c-0.14058,0.23215-0.30498,0.45302-0.4847,0.66321c-0.0461,0.05155-0.0923,0.1032-0.13858,0.15494
		c-0.04813,0.04997-0.09751,0.09893-0.14634,0.14856c-0.04792,0.05059-0.1008,0.09613-0.15195,0.14362l-0.07727,0.07074
		c-0.02563,0.02375-0.0534,0.04506-0.08002,0.06773c-0.21233,0.18227-0.4418,0.34558-0.68012,0.49368
		c-0.11818,0.07587-0.24223,0.14179-0.36504,0.20932l-0.188,0.09392c-0.06247,0.03162-0.1274,0.05789-0.1909,0.08704
		c-0.03199,0.01405-0.06364,0.02884-0.09585,0.04226l-0.09733,0.03843c-0.06511,0.02491-0.12897,0.05293-0.19519,0.07428
		c-0.06574,0.02264-0.13138,0.04525-0.19691,0.06781c-0.06644,0.01974-0.13276,0.03946-0.19895,0.05913
		c-0.26602,0.07423-0.53465,0.13111-0.80307,0.16743c-0.26866,0.03432-0.5362,0.05018-0.79942,0.04762
		c-0.26324-0.00434-0.52166-0.02982-0.77126-0.07359c-0.06215-0.01236-0.12397-0.02465-0.18544-0.03687
		c-0.06105-0.01407-0.12117-0.03071-0.18121-0.04581c-0.02986-0.00819-0.06016-0.01437-0.08937-0.02416
		c-0.02932-0.00938-0.05855-0.01873-0.08768-0.02804c-0.02912-0.00932-0.05815-0.01862-0.08708-0.02787l-0.04325-0.01406
		l-0.0423-0.01637c-0.05628-0.02179-0.11218-0.04344-0.16767-0.06493c-0.05481-0.02312-0.10798-0.04907-0.1614-0.07319
		c-0.02655-0.01241-0.05332-0.0241-0.07939-0.03698c-0.02561-0.01382-0.05112-0.02758-0.07653-0.04128
		c-0.05049-0.02797-0.10188-0.05336-0.15039-0.08282c-0.09589-0.06084-0.19235-0.1172-0.27922-0.18421
		c-0.02216-0.01608-0.04421-0.03208-0.06616-0.048c-0.02202-0.01583-0.04399-0.03148-0.06416-0.04928
		c-0.0412-0.03443-0.082-0.06852-0.12237-0.10226c-0.0414-0.03255-0.07773-0.06998-0.11505-0.10543
		c-0.03695-0.03584-0.07414-0.07062-0.10968-0.10619c-0.03373-0.03733-0.06706-0.07422-0.1-0.11067
		c-0.03283-0.03652-0.06622-0.07176-0.09445-0.11055c-0.02932-0.03783-0.05826-0.07518-0.08682-0.11202
		c-0.0141-0.01854-0.02881-0.03643-0.04212-0.05514c-0.01277-0.0191-0.02545-0.03807-0.03803-0.05691
		c-0.04941-0.07592-0.10189-0.14672-0.14181-0.22216c-0.02113-0.03696-0.04192-0.07332-0.06236-0.10908
		c-0.01021-0.01787-0.02034-0.03559-0.03037-0.05315c-0.00883-0.01821-0.01757-0.03625-0.02624-0.05415
		c-0.0342-0.07175-0.069-0.14003-0.09904-0.20713c-0.02754-0.06818-0.05396-0.13358-0.07921-0.19608
		c-0.00631-0.01561-0.01254-0.03104-0.0187-0.04629c-0.00523-0.01559-0.0104-0.031-0.0155-0.04622
		c-0.01006-0.03047-0.01987-0.06019-0.02943-0.08913c-0.01853-0.05804-0.03845-0.11221-0.05289-0.16449
		c-0.01354-0.05252-0.02623-0.10175-0.03804-0.14755c-0.01169-0.04579-0.02251-0.08816-0.03243-0.12697
		c-0.00762-0.03934-0.01455-0.07507-0.02075-0.10707c-0.02478-0.12788-0.038-0.19608-0.038-0.19608s0.01549,0.0677,0.04454,0.19464
		c0.00726,0.0317,0.01536,0.06711,0.02427,0.10608c0.01119,0.03838,0.0234,0.08028,0.0366,0.12556
		c0.01324,0.04522,0.02747,0.09382,0.04266,0.14567c0.01567,0.05167,0.03687,0.10513,0.05673,0.16237
		c0.01021,0.02853,0.0207,0.05782,0.03146,0.08785c0.00544,0.01499,0.01096,0.03016,0.01653,0.04552
		c0.0065,0.015,0.01308,0.03018,0.01974,0.04553c0.0266,0.06139,0.05443,0.12562,0.08345,0.19258
		c0.03146,0.06579,0.06767,0.13259,0.10326,0.20274c0.00901,0.01748,0.01811,0.03511,0.02728,0.05291
		c0.01037,0.01713,0.02083,0.0344,0.03138,0.05183c0.02109,0.03483,0.04253,0.07025,0.06432,0.10625
		c0.04121,0.07348,0.09487,0.14209,0.14538,0.21567c0.01285,0.01824,0.0258,0.03662,0.03884,0.05512
		c0.01356,0.0181,0.02852,0.03536,0.04286,0.05326c0.029,0.03554,0.05838,0.07157,0.08816,0.10806
		c0.02864,0.03744,0.0625,0.07115,0.09516,0.10666c0.03288,0.03531,0.06615,0.07104,0.09982,0.10719
		c0.03544,0.03438,0.07249,0.06795,0.10926,0.10255c0.03714,0.03421,0.07326,0.07038,0.11439,0.10166
		c0.04007,0.03246,0.08055,0.06526,0.12144,0.09839c0.01999,0.01715,0.04178,0.03215,0.0636,0.04731
		c0.02174,0.01527,0.04358,0.03061,0.06553,0.04602c0.08597,0.06434,0.18139,0.11801,0.27601,0.17613
		c0.04788,0.02811,0.09863,0.05215,0.1484,0.07877c0.02504,0.01303,0.05018,0.02611,0.07541,0.03924
		c0.02569,0.01221,0.05209,0.02323,0.07824,0.03497c0.05263,0.02278,0.10495,0.04738,0.15888,0.06918
		c0.05459,0.02018,0.10958,0.0405,0.16494,0.06097l0.04157,0.01538l0.04253,0.01308
		c0.02843,0.00862,0.05696,0.01727,0.08558,0.02594c0.02861,0.00868,0.05731,0.01738,0.0861,0.02612
		c0.02867,0.00915,0.05846,0.01471,0.08777,0.02227c0.05896,0.01385,0.11793,0.02925,0.17782,0.0421
		c0.06029,0.01102,0.12092,0.02211,0.18188,0.03326c0.24484,0.03811,0.49744,0.06308,0.75526,0.06469
		c0.25771,0.00045,0.51962-0.01713,0.78253-0.05279c0.26262-0.03811,0.52548-0.09528,0.78613-0.16822
		c0.06483-0.01945,0.12978-0.03893,0.19485-0.05845c0.06417-0.02229,0.12846-0.04462,0.19284-0.06699
		c0.06486-0.02106,0.12737-0.04876,0.19112-0.07331l0.09531-0.0379c0.03154-0.01323,0.06252-0.02783,0.09383-0.04168
		c0.06214-0.02875,0.12574-0.0546,0.18685-0.08577l0.18397-0.09249c0.12014-0.06646,0.2414-0.13147,0.35705-0.20584
		c0.23373-0.1444,0.45881-0.30366,0.66693-0.48145c0.0261-0.02211,0.05336-0.04287,0.07847-0.06605l0.07573-0.06899
		c0.05013-0.04631,0.10203-0.09068,0.14895-0.14004c0.04789-0.04836,0.09571-0.09664,0.14345-0.14484
		c0.04534-0.05045,0.09061-0.1008,0.13579-0.15105l0.03379-0.03774l0.03182-0.03933l0.06356-0.07853l0.06344-0.07834
		l0.05936-0.08113c0.03875-0.05456,0.08031-0.10703,0.11653-0.1629c0.03625-0.05586,0.07239-0.11158,0.10843-0.16712
		c0.03568-0.05577,0.06641-0.11428,0.09972-0.171l0.04873-0.08562l0.04381-0.08785c0.01459-0.02923,0.02914-0.05841,0.04368-0.08754
		c0.0144-0.02919,0.02975-0.05788,0.04175-0.08804c0.02553-0.05962,0.05096-0.11901,0.07629-0.17815
		c0.01339-0.0293,0.02403-0.05959,0.03474-0.08978c0.01085-0.03014,0.02167-0.06022,0.03246-0.09024
		c0.01081-0.03001,0.02159-0.05996,0.03235-0.08984c0.01119-0.02974,0.01847-0.06067,0.02787-0.09084
		c0.01785-0.06066,0.03561-0.12102,0.05328-0.18108c0.01433-0.06096,0.02859-0.1216,0.04277-0.18192
		c0.00703-0.03019,0.01405-0.0603,0.02104-0.09032c0.0052-0.03038,0.01038-0.06068,0.01555-0.0909
		c0.01024-0.06047,0.02042-0.1206,0.03054-0.18036c0.00735-0.06015,0.01309-0.12016,0.01968-0.17969
		c0.00639-0.05956,0.01377-0.11867,0.01496-0.17785c0.02822-0.47245-0.01391-0.92218-0.09444-1.32813
		c-0.01027-0.05074-0.01828-0.10144-0.03009-0.15074c-0.01232-0.04919-0.0245-0.09785-0.03654-0.14594
		c-0.01204-0.04812-0.02394-0.09568-0.0357-0.14266c-0.01256-0.04677-0.02756-0.09226-0.04093-0.13758
		c-0.01372-0.04524-0.02726-0.0899-0.04061-0.13397c-0.01319-0.04413-0.02613-0.08771-0.04224-0.12953
		c-0.03044-0.0843-0.06001-0.16619-0.08866-0.24554c-0.0135-0.04002-0.03032-0.078-0.04601-0.1157
		c-0.01578-0.03767-0.03129-0.07469-0.04653-0.11107c-0.01524-0.03639-0.03021-0.07212-0.0449-0.10718
		c-0.00735-0.01753-0.01462-0.0349-0.02182-0.0521c-0.00799-0.01684-0.0159-0.03352-0.02373-0.05003
		c-0.03147-0.06599-0.06165-0.1293-0.0905-0.1898c-0.029-0.06044-0.05544-0.11874-0.08516-0.17162
		c-0.05705-0.10715-0.10798-0.20281-0.1523-0.28604c-0.04654-0.08212-0.08813-0.15087-0.12082-0.20718
		C29.21511,25.83113,29.17993,25.77123,29.17993,25.77123z"/>
</g>
</svg>
