<?xml version="1.0" encoding="utf-8"?>
<!-- Generator: Adobe Illustrator 19.2.1, SVG Export Plug-In . SVG Version: 6.00 Build 0)  -->
<svg version="1.1" id="Layer_1" xmlns="http://www.w3.org/2000/svg" xmlns:xlink="http://www.w3.org/1999/xlink" x="0px" y="0px"
	 viewBox="0 0 50 50" style="enable-background:new 0 0 50 50;" xml:space="preserve">
<style type="text/css">
	.st0{fill:#DD2222;}
	.st1{fill:url(#SVGID_1_);}
	.st2{fill:url(#SVGID_2_);}
	.st3{fill:url(#SVGID_3_);}
	.st4{fill:url(#SVGID_4_);}
	.st5{fill:url(#SVGID_5_);}
	.st6{fill:url(#SVGID_6_);}
	.st7{fill:#E02B2B;}
	.st8{fill:url(#SVGID_7_);}
	.st9{fill:url(#SVGID_8_);}
	.st10{fill:#D97871;}
</style>
<g>
	<path class="st0" d="M15.93619,36.57319l-1.2449-0.5448c0.12585-0.68454,0.47043-2.07529,0.97646-3.93979
		c0.02522-0.09289,0.05075-0.18658,0.07658-0.2811c0.12454-0.45599,0.25859-0.93954,0.39842-1.43728
		c0.0984-0.35007,0.19952-0.7067,0.3006-1.06006c0.67549-2.36102,1.55283-4.90533,2.19342-6.76312
		c0.095-0.27551,0.18563-0.53836,0.27066-0.78621c1.31511-3.83282,3.53044-7.99744,3.81582-8.52794h5.0784
		c0.19403,0.31441,1.28628,2.1441,2.91309,6.02603c0.05353,0.12782,0.11004,0.26084,0.16858,0.39861
		c0.2669,0.62816,0.56943,1.34013,0.83105,2.11783c0.17603,0.523,0.38568,1.0639,0.60764,1.63657
		c0.31762,0.81946,0.64609,1.66682,0.89367,2.51497c0.32697,1.11978,0.66843,2.33102,1.04395,3.70303
		c0.31259,1.14218,0.58633,2.16724,0.8063,2.99084c0.27817,1.04095,0.46191,1.72867,0.51895,1.88141
		c0.10907,0.29208,0.3559,1.2699,0.43427,1.58408l-1.21637,0.38803l-0.00329,0.00159l-2.78168,0.22333l-1.40772-0.95694
		c-0.0047-0.2157-0.03528-1.01083-0.23239-1.98355c-0.18652-0.92017-0.43405-2.01404-0.97757-3.77231l-0.02637-0.08526
		l-0.08868,0.00973c-2.63525,0.28952-5.37591,0.67118-8.14588,1.13446l-0.0739,0.01239l-0.01433,0.07361
		c-0.05704,0.29318-0.10858,0.56674-0.15263,0.80042c-0.06519,0.34601-0.1167,0.61926-0.14075,0.71414
		c-0.09363,0.36956-0.15617,2.56448-0.16681,2.9627l-1.86876,1.15637L15.93619,36.57319z M25.3478,19.42664
		c-0.11771,0-0.33832,0.06546-0.49344,0.50382c-0.66421,1.87723-1.20215,3.25606-1.63437,4.36395
		c-0.23148,0.59329-0.43138,1.10571-0.58916,1.5399l-0.09839,0.27075l0.25218-0.13925
		c0.1572-0.08679,0.31598-0.17392,0.47624-0.26123c1.25115-0.68169,2.46202-1.30457,3.59886-1.85135
		c0.09338-0.04494,0.18689-0.08969,0.28043-0.13411l0.08856-0.04208l-0.03333-0.09224
		c-0.66263-1.83484-1.23013-3.3667-1.38007-3.72516C25.65773,19.48289,25.45476,19.42664,25.3478,19.42664z"/>
	
		<radialGradient id="SVGID_1_" cx="-208.41415" cy="434.1875" r="20.15487" gradientTransform="matrix(-0.35595 0.92217 0.68451 0.25729 -346.14923 98.2143)" gradientUnits="userSpaceOnUse">
		<stop  offset="0" style="stop-color:#69252A"/>
		<stop  offset="0.14883" style="stop-color:#803639"/>
		<stop  offset="0.45899" style="stop-color:#BB605E"/>
		<stop  offset="0.73565" style="stop-color:#F48A82"/>
	</radialGradient>
	<path class="st1" d="M24.96227,19.96651c0.19064-0.53882,0.5408-0.58786,0.75943-0.06517
		c0.1536,0.36725,0.73074,1.92753,1.37814,3.72017c0.67285-0.34633,0.98291-0.54187,1.57672-0.87428
		c-0.66962-1.49907-2.73728-5.83056-2.98792-6.20157c-0.26413-0.39094-0.26413-0.65158-0.59427-0.06517
		c-0.32257,0.57304-5.07799,10.29092-5.80612,11.61672c1.06198-0.6441,1.94733-1.29016,3.40478-2.09488
		C23.13454,24.78732,23.92937,22.88573,24.96227,19.96651z"/>
	
		<radialGradient id="SVGID_2_" cx="-214.42764" cy="432.28522" r="19.8903" gradientTransform="matrix(-0.36844 0.91738 0.66558 0.2603 -344.33588 110.93659)" gradientUnits="userSpaceOnUse">
		<stop  offset="0.00362" style="stop-color:#793835"/>
		<stop  offset="0.14137" style="stop-color:#904743"/>
		<stop  offset="0.4286" style="stop-color:#CB6E68"/>
		<stop  offset="0.61462" style="stop-color:#F48A82"/>
	</radialGradient>
	<path class="st2" d="M20.84134,31.20607c-1.09208,0.18497-1.91363,0.38993-3.09593,0.61685
		c-0.00867,0.02289-0.01724,0.04568-0.02568,0.06757c-0.29871,0.77713-1.47362,3.75787-1.76846,4.79162l2.74731,0.18915
		C18.99645,36.05622,19.8714,33.67927,20.84134,31.20607z"/>
	
		<radialGradient id="SVGID_3_" cx="-64.44275" cy="371.50421" r="20.31449" gradientTransform="matrix(0.25765 0.95348 0.72177 -0.18992 -222.15137 154.02031)" gradientUnits="userSpaceOnUse">
		<stop  offset="0.00362" style="stop-color:#793835"/>
		<stop  offset="0.12872" style="stop-color:#803C39"/>
		<stop  offset="0.30728" style="stop-color:#934945"/>
		<stop  offset="0.5179" style="stop-color:#B15E58"/>
		<stop  offset="0.75118" style="stop-color:#DC7A73"/>
		<stop  offset="0.86825" style="stop-color:#F48A82"/>
	</radialGradient>
	<path class="st3" d="M31.97151,29.93577c-0.02066-0.04757-0.05188-0.11697-0.09162-0.20407
		c-0.82178,0.06983-1.42892,0.1611-2.51483,0.27982c1.04761,2.60944,2.11236,5.31815,2.62591,6.79599l0.00366,0.00247l2.83932-0.228
		l0.01464-0.00699c-0.11459-0.37311-0.40781-1.29416-0.74102-2.07812C33.67845,33.48692,32.26863,30.61992,31.97151,29.93577z"/>
	
		<linearGradient id="SVGID_4_" gradientUnits="userSpaceOnUse" x1="16.65559" y1="25.06103" x2="21.45325" y2="14.70088" gradientTransform="matrix(1 0 0 -1 0 52)">
		<stop  offset="0" style="stop-color:#512427"/>
		<stop  offset="0.95784" style="stop-color:#BE2C34"/>
	</linearGradient>
	<path class="st4" d="M18.69858,36.87126l0.05678,0.00391l1.94795-1.20541c0,0,0.06602-2.60635,0.16509-2.99731
		c0.04109-0.16214,0.15033-0.77826,0.29469-1.52051c-0.10675,0.01782-0.214,0.03592-0.32175,0.05414
		C19.8714,33.67927,18.99645,36.05622,18.69858,36.87126z"/>
	
		<linearGradient id="SVGID_5_" gradientUnits="userSpaceOnUse" x1="33.60672" y1="8.6646" x2="29.28138" y2="21.56965" gradientTransform="matrix(1 0 0 -1 0 52)">
		<stop  offset="0" style="stop-color:#512427"/>
		<stop  offset="0.95784" style="stop-color:#BE2C34"/>
	</linearGradient>
	<path class="st5" d="M30.27785,33.78016c0.23108,1.14026,0.23108,2.01987,0.23108,2.01987l1.48206,1.00748
		c-0.51355-1.47784-1.57831-4.18655-2.62591-6.79599c-0.02075,0.00229-0.04132,0.00455-0.06214,0.00677
		C29.84642,31.7765,30.0937,32.87178,30.27785,33.78016z"/>
	
		<linearGradient id="SVGID_6_" gradientUnits="userSpaceOnUse" x1="28.30875" y1="42.43997" x2="13.27765" y2="21.26943" gradientTransform="matrix(1 0 0 -1 0 52)">
		<stop  offset="0" style="stop-color:#DD2222"/>
		<stop  offset="0.04251" style="stop-color:#D32424"/>
		<stop  offset="0.21114" style="stop-color:#AE292D"/>
		<stop  offset="0.34818" style="stop-color:#982D32"/>
		<stop  offset="0.43567" style="stop-color:#902E34"/>
		<stop  offset="0.98085" style="stop-color:#682427"/>
	</linearGradient>
	<path class="st6" d="M22.66484,13.12484c0,0-2.4339,4.46336-3.85356,8.60092c-0.67163,1.95748-1.69147,4.84824-2.46577,7.55469
		c-0.10229,0.35764-0.20274,0.71194-0.30075,1.06055c-0.13859,0.49335-0.27218,0.97516-0.39861,1.43802
		c0.05409-0.0903,0.24356-0.62079,0.57304-1.50741c0.12871-0.34619,0.27876-0.7467,0.45035-1.19638
		c1.2648-3.31439,3.70323-9.30294,7.42251-15.95037h-1.42721V13.12484z"/>
	<path class="st7" d="M34.36988,29.60136c-0.31772-1.16082-0.67307-2.43286-1.04443-3.70474
		c-0.42025-1.43959-1.07287-2.87873-1.50256-4.15571c-0.32114-0.9543-0.70675-1.81812-1.00244-2.52376
		c-1.81586-4.33302-2.95291-6.09231-2.95291-6.09231h-1.29263c0.65072,1.23703,2.4422,4.7043,4.38946,9.00831
		c0.55447,1.22548,1.12149,2.51869,1.67847,3.84761c0.49957,1.19211,0.991,2.41281,1.45788,3.63907
		c0.37754,0.99157,0.73899,1.98669,1.07568,2.97305C34.95753,31.77342,34.68184,30.74116,34.36988,29.60136z"/>
	
		<radialGradient id="SVGID_7_" cx="-66.84077" cy="410.75082" r="29.90217" gradientTransform="matrix(0.24492 0.96954 0.64084 -0.16188 -216.30275 147.69987)" gradientUnits="userSpaceOnUse">
		<stop  offset="0" style="stop-color:#DD2222"/>
		<stop  offset="0.73786" style="stop-color:#942325"/>
		<stop  offset="0.86901" style="stop-color:#822326"/>
		<stop  offset="1" style="stop-color:#752326"/>
	</radialGradient>
	<path class="st8" d="M35.69218,34.46437c-0.05497-0.14709-0.24048-0.84113-0.51578-1.87149
		c-0.3367-0.98636-0.69815-1.98148-1.07568-2.97305c-0.46688-1.22626-0.95831-2.44696-1.45788-3.63907
		c-0.55698-1.32892-1.12399-2.62213-1.67847-3.84761c-1.94727-4.30401-3.73874-7.77128-4.38946-9.00831h-2.48285
		c-3.71928,6.64743-6.15771,12.63598-7.42251,15.95037c-0.17159,0.44968-0.32164,0.85019-0.45035,1.19638
		c-0.32948,0.88663-0.51895,1.41711-0.57304,1.50741c-0.02585,0.09455-0.05138,0.18833-0.07664,0.28128
		c-0.49924,1.83957-0.87533,3.34512-0.99348,4.03299l1.34007,0.58643l0.03517,0.00241
		c0.29485-1.03375,1.46976-4.01449,1.76846-4.79162c0.00844-0.02188,0.01702-0.04468,0.02568-0.06757
		c0.19704-0.5213,0.52608-1.29682,0.80811-2.05392c0.27458-0.73727,0.70512-1.61789,0.73474-1.67178
		c0.71994-1.31091,5.48752-11.02128,5.80612-11.61672c0.1463-0.27353,0.34387-0.35176,0.59427,0.06517
		c0.22159,0.36888,2.31216,4.68878,2.98792,6.20157c-0.66559,0.33748-7.88408,4.16347-9.3883,5.34999
		c-0.01706,0.03107-0.51096,1.07092-0.73474,1.67178c1.46056-0.57721,6.43121-2.51028,11.65704-3.53607c-0.00485-0.0014,0,0,0,0
		c0.67001,1.43869,1.39645,2.90109,1.66934,3.49878c0.03973,0.0871,0.07095,0.1565,0.09162,0.20407
		c0.29712,0.68414,1.70694,3.55115,2.13608,4.56109c0.33322,0.78397,0.62643,1.70502,0.74102,2.07812l1.30582-0.41656
		C36.15443,36.15843,35.82579,34.82219,35.69218,34.46437z"/>
	
		<linearGradient id="SVGID_8_" gradientUnits="userSpaceOnUse" x1="13.35723" y1="21.26554" x2="35.58275" y2="24.7237" gradientTransform="matrix(1 0 0 -1 0 52)">
		<stop  offset="0" style="stop-color:#512427"/>
		<stop  offset="0.24982" style="stop-color:#752326"/>
		<stop  offset="0.48445" style="stop-color:#942325"/>
		<stop  offset="0.61481" style="stop-color:#982325"/>
		<stop  offset="0.73113" style="stop-color:#A22324"/>
		<stop  offset="0.84209" style="stop-color:#B52324"/>
		<stop  offset="0.94908" style="stop-color:#CE2223"/>
		<stop  offset="1" style="stop-color:#DD2222"/>
	</linearGradient>
	<path class="st9" d="M30.21056,26.23293c-0.69086,0.12152-5.94623,1.12182-11.65704,3.53607
		c-0.27739,0.74466-0.6069,1.52164-0.80811,2.05392c1.1823-0.22693,2.00385-0.43188,3.09593-0.61685
		c0.10774-0.01822,0.215-0.03632,0.32175-0.05414c3.15947-0.52844,5.91087-0.88879,8.13984-1.13364
		c0.02081-0.00222,0.04138-0.00448,0.06214-0.00677c1.08591-0.11871,1.69305-0.20999,2.51483-0.27982
		C31.60701,29.13402,30.88057,27.67162,30.21056,26.23293z"/>
	<path class="st10" d="M19.40172,28.02711c0.17762-0.1339,0.36033-0.26111,0.54524-0.38488
		c0.0924-0.06198,0.1859-0.12228,0.27892-0.18334l0.28158-0.17923c0.18867-0.11799,0.37831-0.23439,0.56866-0.34963
		c0.19046-0.11506,0.38163-0.22891,0.57317-0.34215l0.57642-0.33662l0.57867-0.33271
		c0.38645-0.22063,0.77379-0.43971,1.16253-0.65625c0.77765-0.43277,1.55833-0.86003,2.34014-1.28506l1.17326-0.63644
		c0.39098-0.21218,0.78257-0.42359,1.17125-0.63887l-0.02225,0.06639c-0.21236-0.46723-0.43377-0.93129-0.65482-1.3953
		c-0.22164-0.46379-0.44516-0.92677-0.6699-1.38917c-0.44919-0.92495-0.9023-1.84807-1.35653-2.77068l-0.17037-0.34599
		l-0.08517-0.17304L25.65,16.60743l-0.01063-0.02168l-0.00532-0.01084c-0.00125-0.0026,0.0017,0.00315-0.00098-0.00176
		l-0.00298-0.00524c-0.00798-0.01418-0.01597-0.02818-0.02346-0.03959c-0.03091-0.04933-0.06836-0.09605-0.1107-0.12916
		c-0.04243-0.03338-0.08957-0.05223-0.13535-0.04882c-0.04586,0.00301-0.09213,0.0277-0.13225,0.06512
		c-0.04037,0.0372-0.07444,0.08578-0.10323,0.13776c-0.00749,0.01282-0.0139,0.0265-0.02079,0.03981l-0.02132,0.04338
		l-0.04246,0.08656l-0.08631,0.17306l-0.17376,0.34461l-0.3495,0.68771c-0.46882,0.91535-0.93689,1.83093-1.40153,2.74825
		c-0.46466,0.9173-0.92599,1.83627-1.38282,2.75745l-0.68428,1.38222c-0.22677,0.46139-0.45284,0.92313-0.67611,1.38621
		c-0.22407,0.4627-0.44509,0.92685-0.6647,1.39168c-0.21842,0.46536-0.43688,0.93073-0.65108,1.39807
		c-0.21518,0.46691-0.42424,0.93656-0.63046,1.40751c-0.20343,0.47211-0.40473,0.94524-0.59459,1.42318
		c0.18044-0.48155,0.37112-0.95932,0.56864-1.43423c0.19924-0.47416,0.40138-0.94719,0.60966-1.41748
		c0.10278-0.23577,0.20916-0.4699,0.31358-0.70495l0.32024-0.70192c0.21546-0.46703,0.43234-0.93342,0.65228-1.39835
		c0.21914-0.46532,0.44108-0.92929,0.66372-1.39293c0.22338-0.46327,0.44628-0.9268,0.67398-1.38795
		c0.45421-0.9229,0.91291-1.84355,1.37493-2.7625c0.46199-0.91896,0.92741-1.83619,1.39346-2.75294l0.35061-0.6869l0.17454-0.34359
		l0.08633-0.1718l0.04272-0.08643l0.02134-0.04309c0.00787-0.01524,0.01521-0.03063,0.02392-0.04559
		c0.03362-0.06005,0.07381-0.11861,0.1281-0.16874c0.05329-0.04953,0.12534-0.09212,0.209-0.09764
		c0.04124-0.00299,0.08292,0.00435,0.12023,0.01825c0.03748,0.01395,0.07076,0.03426,0.10009,0.0573
		c0.05875,0.04671,0.10214,0.10265,0.13936,0.1619c0.00997,0.01558,0.01782,0.02954,0.02559,0.04339l0.00297,0.00524
		c-0.00067-0.00143,0.00427,0.00781,0.0047,0.00886l0.00527,0.01082l0.01054,0.02163l0.04218,0.08653l0.08473,0.17318
		l0.16955,0.34639c0.45209,0.92378,0.90309,1.84815,1.35023,2.77446c0.22372,0.46308,0.44623,0.92678,0.66693,1.39141
		c0.22095,0.46456,0.43968,0.93007,0.64898,1.40087l0.01942,0.0437l-0.04168,0.0227
		c-0.39122,0.21311-0.7841,0.42166-1.17667,0.63114l-1.1776,0.62812c-0.78464,0.41945-1.56808,0.84109-2.34848,1.26823
		l-0.5853,0.32036l-0.58393,0.32282l-0.58221,0.32589l-0.57999,0.32981c-0.19273,0.11098-0.38511,0.22256-0.57677,0.33536
		c-0.19155,0.11298-0.38242,0.22712-0.57232,0.34286l-0.2841,0.17483c-0.09387,0.05957-0.18826,0.11839-0.28155,0.1789
		C19.76593,27.77168,19.58146,27.89593,19.40172,28.02711z"/>
	<path class="st10" d="M18.6093,29.78007l0.70513-0.2818l0.35294-0.13994l0.17647-0.06997l0.17741-0.06762l0.70988-0.27014
		c0.11845-0.04467,0.23638-0.09085,0.35528-0.13429l0.35712-0.1292l0.71454-0.2577l0.71798-0.24808
		c0.11976-0.04107,0.23913-0.08331,0.35922-0.12343l0.36068-0.11913l0.3607-0.11914c0.12019-0.03986,0.24039-0.0797,0.36136-0.11713
		l0.72542-0.22592l0.7283-0.21661c0.12123-0.03665,0.24313-0.07101,0.36507-0.10521l0.36568-0.10317L26.68532,27l0.18349-0.0493
		l0.36705-0.09833c0.12219-0.03338,0.24493-0.06469,0.36779-0.09561l0.36835-0.09352
		c0.12286-0.03089,0.24629-0.05953,0.36941-0.08941c0.12321-0.02955,0.24627-0.05968,0.37001-0.08705l0.37108-0.08261
		l0.3721-0.07819c0.24861-0.04961,0.49748-0.09856,0.74742-0.14159l0.03736-0.00643l0.01584,0.03416
		c0.32016,0.69041,0.64855,1.37717,0.97842,2.06336c0.16458,0.34328,0.33111,0.68565,0.49285,1.03056
		c0.08087,0.17244,0.16191,0.34502,0.23847,0.52003l0.11535,0.26118l0.11827,0.25918c0.31883,0.691,0.64816,1.37773,0.96889,2.06834
		l0.47922,1.03691c0.1582,0.34633,0.31463,0.69363,0.46091,1.04518c-0.0774-0.17393-0.15702-0.34681-0.23824-0.51896
		l-0.24459-0.51597l-0.49727-1.02812l-0.49893-1.0274c-0.16582-0.34274-0.33172-0.68542-0.49502-1.02963l-0.12159-0.25907
		l-0.11816-0.25997c-0.07789-0.17297-0.16053-0.34418-0.24316-0.51555l-0.49844-1.0274
		c-0.33235-0.68512-0.66337-1.37109-0.98631-2.06108l0.05319,0.02772c-0.2488,0.04373-0.49648,0.09337-0.74411,0.1437
		l-0.3707,0.07927l-0.36987,0.08333c-0.1235,0.02685-0.24639,0.05648-0.36941,0.08553
		c-0.12295,0.02938-0.24618,0.05752-0.36889,0.08791l-0.36793,0.09203c-0.12271,0.03042-0.24533,0.06123-0.36742,0.09413
		l-0.36674,0.09686l-0.18334,0.04856l-0.18273,0.05086l-0.36546,0.10172c-0.12188,0.03372-0.24371,0.0676-0.36489,0.10377
		l-0.72805,0.21375l-0.72532,0.22301c-0.12123,0.0361-0.2417,0.07461-0.36217,0.11315L23.6205,28.0142l-0.36157,0.11517
		c-0.12039,0.0388-0.24009,0.07973-0.36017,0.11949l-0.72,0.24022l-0.71673,0.24989l-0.35845,0.1248
		c-0.11958,0.04134-0.23815,0.08541-0.35729,0.12798l-0.7141,0.25758l-0.17851,0.0645l-0.17766,0.06688l-0.35533,0.13376
		L18.6093,29.78007z"/>
</g>
</svg>
