<?xml version="1.0" encoding="utf-8"?>
<!-- Generator: Adobe Illustrator 21.0.0, SVG Export Plug-In . SVG Version: 6.00 Build 0)  -->
<svg version="1.1" id="Layer_1" xmlns="http://www.w3.org/2000/svg" xmlns:xlink="http://www.w3.org/1999/xlink" x="0px" y="0px"
	 viewBox="0 0 48 48" style="enable-background:new 0 0 48 48;" xml:space="preserve">
<style type="text/css">
	.st0{fill:#BABABB;}
	.st1{fill:#3C3C3C;}
	.st2{opacity:0.25;fill:#4D4E4E;}
	.st3{fill:#1295D2;}
	.st4{fill:#FFFFFF;}
</style>
<g>
	<path class="st0" d="M46,38.8440475H21.6559639c-1.1045685,0-2-0.8954315-2-2V12.5000114c0-1.1045694,0.8954315-2,2-2H46
		c1.1045685,0,2,0.8954306,2,2v24.3440361C48,37.948616,47.1045685,38.8440475,46,38.8440475z"/>
	<polygon class="st0" points="43.924263,32.8723717 40.6098404,44.8157234 32.838089,32.8723717 	"/>
	<path class="st1" d="M38.8184624,18.9844761h4.4223747v-2.2546387h-9.4128532v-2.8303432H30.434967v2.8303432h-6.0198421v2.2546387
		h11.8044605c-0.3489799,1.2944031-2.7126884,5.5121784-3.6501579,6.483469
		c-0.8940163-0.7959156-1.4682312-2.0071144-2.4403-3.8437748l-2.6255264,0.0845966c0,0,1.2896614,3.5571346,3.4240246,5.636797
		c0,0-4.5587406,4.9346371-5.7778397,5.6579494c0.2285805,0.7614098,0.8555641,2.7265015,0.8555641,2.7265015
		s5.6334629-5.2104626,6.6187801-6.6334343c0,0,4.9801102,5.1989403,6.3479805,6.3479843l1.4776802-1.8059273
		c0,0-5.0635147-5.2565155-5.9546318-6.4657631C35.8686905,25.3740196,37.4502602,23.4353218,38.8184624,18.9844761z"/>
	<path class="st2" d="M29.680357,34.541851H19.6559639V10.5000114H31.680357V32.541851
		C31.680357,33.6464195,30.7849255,34.541851,29.680357,34.541851z"/>
	<polygon class="st3" points="5.0330153,26.3827953 8.3474388,38.326149 16.1191902,26.3827953 	"/>
	<path class="st3" d="M26.3440361,31.5283108H2c-1.1045694,0-2-0.8954296-2-2V5.1842756c0-1.1045694,0.8954305-2,2-2h24.3440361
		c1.1045685,0,2,0.8954306,2,2v24.3440361C28.3440361,30.6328812,27.4486046,31.5283108,26.3440361,31.5283108z"/>
	<g>
		<path class="st4" d="M17.4085941,21.2247486h-6.653758l-1.5472212,5.1580467H6.5510054L12.2508688,8.329792h3.5847492
			l5.9574118,18.0530033h-2.7338734L17.4085941,21.2247486z M11.4254274,19.032692h5.2871428l-2.6823645-8.7944679
			L11.4254274,19.032692z"/>
	</g>
</g>
</svg>
