<?xml version="1.0" encoding="utf-8"?>
<!-- Generator: Adobe Illustrator 16.0.0, SVG Export Plug-In . SVG Version: 6.00 Build 0)  -->
<!DOCTYPE svg PUBLIC "-//W3C//DTD SVG 1.1//EN" "http://www.w3.org/Graphics/SVG/1.1/DTD/svg11.dtd">
<svg version="1.1" id="Layer_1" xmlns="http://www.w3.org/2000/svg" xmlns:xlink="http://www.w3.org/1999/xlink" x="0px" y="0px"
	 width="82px" height="82px" viewBox="0 0 82 82" enable-background="new 0 0 82 82" xml:space="preserve">
<g>
	
		<line fill="none" stroke="#F05742" stroke-width="3" stroke-linecap="round" stroke-linejoin="round" stroke-miterlimit="10" x1="21.416" y1="22.25" x2="59.75" y2="60.584"/>
	
		<line fill="none" stroke="#F05742" stroke-width="3" stroke-linecap="round" stroke-linejoin="round" stroke-miterlimit="10" x1="59.75" y1="22.25" x2="21.416" y2="60.584"/>
</g>
<g>
	<g>
		<path fill="none" d="M41,2C19.495,2,2,19.495,2,41s17.495,39,39,39s39-17.495,39-39S62.505,2,41,2z"/>
		<path fill="#F05742" stroke="#F05742" stroke-width="2" stroke-miterlimit="10" d="M41,1C18.91,1,1,18.91,1,41s17.91,40,40,40
			s40-17.91,40-40S63.09,1,41,1z M41,80C19.495,80,2,62.505,2,41S19.495,2,41,2s39,17.495,39,39S62.505,80,41,80z"/>
	</g>
</g>
</svg>
