<?xml version="1.0" encoding="utf-8"?>
<!-- Generator: Adobe Illustrator 16.0.4, SVG Export Plug-In . SVG Version: 6.00 Build 0)  -->
<!DOCTYPE svg PUBLIC "-//W3C//DTD SVG 1.1//EN" "http://www.w3.org/Graphics/SVG/1.1/DTD/svg11.dtd">
<svg version="1.1" id="Layer_1" xmlns="http://www.w3.org/2000/svg" xmlns:xlink="http://www.w3.org/1999/xlink" x="0px" y="0px"
	 width="24px" height="24px" viewBox="0 0 24 24" enable-background="new 0 0 24 24" xml:space="preserve">
<path fill="#828282" d="M12.26,3.319c4.963,0,9,4.038,9,9c0,4.963-4.037,9-9,9c-4.962,0-9-4.037-9-9
	C3.26,7.357,7.297,3.319,12.26,3.319 M12.26,2.319c-5.522,0-10,4.478-10,10s4.478,10,10,10s10-4.478,10-10S17.782,2.319,12.26,2.319
	L12.26,2.319z"/>
<g>
	<path fill="#828282" d="M11.384,13.637c0-2.045,2.55-2.228,2.55-3.656V9.602c0-0.812-0.645-1.372-1.653-1.372
		c-0.938,0-1.526,0.28-2.339,0.882L9.367,8.384c0.84-0.687,1.709-1.121,2.997-1.121c1.724,0,2.788,1.009,2.788,2.27v0.406
		c0,1.961-2.62,2.017-2.62,3.754v0.406h-1.148V13.637z M11.16,16.536c0-0.448,0.378-0.826,0.826-0.826
		c0.477,0,0.826,0.378,0.826,0.826c0,0.476-0.35,0.84-0.826,0.84C11.538,17.376,11.16,17.012,11.16,16.536z"/>
</g>
</svg>
